<svg id="visual" viewBox="0 0 960 540" width="960" height="540" xmlns="http://www.w3.org/2000/svg" xmlns:xlink="http://www.w3.org/1999/xlink" version="1.1"><g stroke-width="1" stroke-linejoin="bevel"><path d="M497 274L466 260L462 319Z" fill="#d1bbec" stroke="#d1bbec"></path><path d="M466 260L441 302L462 319Z" fill="#8f82b3" stroke="#8f82b3"></path><path d="M485 377L474 335L456 397Z" fill="#e8cfff" stroke="#e8cfff"></path><path d="M462 319L516 316L497 274Z" fill="#504d7d" stroke="#504d7d"></path><path d="M474 335L516 316L462 319Z" fill="#8f82b3" stroke="#8f82b3"></path><path d="M458 199L432 233L466 260Z" fill="#a595c6" stroke="#a595c6"></path><path d="M466 260L432 233L441 302Z" fill="#d1bbec" stroke="#d1bbec"></path><path d="M516 316L526 244L497 274Z" fill="#7a70a1" stroke="#7a70a1"></path><path d="M497 274L526 244L466 260Z" fill="#8f82b3" stroke="#8f82b3"></path><path d="M432 233L395 260L441 302Z" fill="#bba8d9" stroke="#bba8d9"></path><path d="M414 367L474 335L462 319Z" fill="#e8cfff" stroke="#e8cfff"></path><path d="M414 367L462 319L441 302Z" fill="#504d7d" stroke="#504d7d"></path><path d="M474 335L529 365L516 316Z" fill="#3b3d6c" stroke="#3b3d6c"></path><path d="M526 244L458 199L466 260Z" fill="#8f82b3" stroke="#8f82b3"></path><path d="M424 200L376 261L395 260Z" fill="#bba8d9" stroke="#bba8d9"></path><path d="M485 377L529 365L474 335Z" fill="#3b3d6c" stroke="#3b3d6c"></path><path d="M516 316L598 277L526 244Z" fill="#655e8f" stroke="#655e8f"></path><path d="M392 366L414 367L441 302Z" fill="#504d7d" stroke="#504d7d"></path><path d="M424 200L395 260L432 233Z" fill="#a595c6" stroke="#a595c6"></path><path d="M395 260L366 288L441 302Z" fill="#655e8f" stroke="#655e8f"></path><path d="M458 199L424 200L432 233Z" fill="#8f82b3" stroke="#8f82b3"></path><path d="M376 261L366 288L395 260Z" fill="#655e8f" stroke="#655e8f"></path><path d="M414 367L456 397L474 335Z" fill="#d1bbec" stroke="#d1bbec"></path><path d="M485 377L512 409L529 365Z" fill="#7a70a1" stroke="#7a70a1"></path><path d="M366 288L392 366L441 302Z" fill="#7a70a1" stroke="#7a70a1"></path><path d="M414 367L420 401L456 397Z" fill="#655e8f" stroke="#655e8f"></path><path d="M458 199L430 187L424 200Z" fill="#0c1f4b" stroke="#0c1f4b"></path><path d="M338 209L360 257L376 261Z" fill="#a595c6" stroke="#a595c6"></path><path d="M392 366L401 381L414 367Z" fill="#7a70a1" stroke="#7a70a1"></path><path d="M376 261L360 257L366 288Z" fill="#655e8f" stroke="#655e8f"></path><path d="M338 209L376 261L424 200Z" fill="#0c1f4b" stroke="#0c1f4b"></path><path d="M401 381L420 401L414 367Z" fill="#504d7d" stroke="#504d7d"></path><path d="M526 244L502 171L458 199Z" fill="#0c1f4b" stroke="#0c1f4b"></path><path d="M458 199L437 150L430 187Z" fill="#655e8f" stroke="#655e8f"></path><path d="M462 439L512 409L456 397Z" fill="#504d7d" stroke="#504d7d"></path><path d="M456 397L512 409L485 377Z" fill="#e8cfff" stroke="#e8cfff"></path><path d="M598 277L516 316L600 328Z" fill="#e8cfff" stroke="#e8cfff"></path><path d="M605 282L598 277L600 328Z" fill="#252e5b" stroke="#252e5b"></path><path d="M526 244L541 154L502 171Z" fill="#a595c6" stroke="#a595c6"></path><path d="M401 381L388 391L420 401Z" fill="#504d7d" stroke="#504d7d"></path><path d="M392 366L388 391L401 381Z" fill="#8f82b3" stroke="#8f82b3"></path><path d="M320 398L388 391L392 366Z" fill="#e8cfff" stroke="#e8cfff"></path><path d="M600 328L516 316L529 365Z" fill="#3b3d6c" stroke="#3b3d6c"></path><path d="M598 277L590 202L526 244Z" fill="#bba8d9" stroke="#bba8d9"></path><path d="M588 371L600 328L529 365Z" fill="#d1bbec" stroke="#d1bbec"></path><path d="M388 391L414 415L420 401Z" fill="#655e8f" stroke="#655e8f"></path><path d="M420 401L414 415L456 397Z" fill="#d1bbec" stroke="#d1bbec"></path><path d="M536 437L546 408L512 409Z" fill="#a595c6" stroke="#a595c6"></path><path d="M512 409L546 408L529 365Z" fill="#d1bbec" stroke="#d1bbec"></path><path d="M546 408L588 371L529 365Z" fill="#bba8d9" stroke="#bba8d9"></path><path d="M588 371L593 366L600 328Z" fill="#e8cfff" stroke="#e8cfff"></path><path d="M502 171L437 150L458 199Z" fill="#0c1f4b" stroke="#0c1f4b"></path><path d="M401 139L338 209L424 200Z" fill="#655e8f" stroke="#655e8f"></path><path d="M617 221L590 202L598 277Z" fill="#e8cfff" stroke="#e8cfff"></path><path d="M430 443L462 439L456 397Z" fill="#3b3d6c" stroke="#3b3d6c"></path><path d="M590 202L541 154L526 244Z" fill="#0c1f4b" stroke="#0c1f4b"></path><path d="M502 171L488 80L437 150Z" fill="#252e5b" stroke="#252e5b"></path><path d="M360 257L318 275L366 288Z" fill="#504d7d" stroke="#504d7d"></path><path d="M366 288L320 398L392 366Z" fill="#504d7d" stroke="#504d7d"></path><path d="M338 209L318 275L360 257Z" fill="#252e5b" stroke="#252e5b"></path><path d="M401 139L424 200L430 187Z" fill="#a595c6" stroke="#a595c6"></path><path d="M593 366L627 316L600 328Z" fill="#8f82b3" stroke="#8f82b3"></path><path d="M600 328L627 316L605 282Z" fill="#0c1f4b" stroke="#0c1f4b"></path><path d="M626 235L617 221L598 277Z" fill="#e8cfff" stroke="#e8cfff"></path><path d="M375 453L430 443L414 415Z" fill="#bba8d9" stroke="#bba8d9"></path><path d="M414 415L430 443L456 397Z" fill="#252e5b" stroke="#252e5b"></path><path d="M462 439L536 437L512 409Z" fill="#0c1f4b" stroke="#0c1f4b"></path><path d="M546 408L559 441L588 371Z" fill="#655e8f" stroke="#655e8f"></path><path d="M588 371L638 400L593 366Z" fill="#3b3d6c" stroke="#3b3d6c"></path><path d="M559 441L536 437L537 474Z" fill="#0c1f4b" stroke="#0c1f4b"></path><path d="M626 235L598 277L605 282Z" fill="#252e5b" stroke="#252e5b"></path><path d="M590 202L612 172L541 154Z" fill="#655e8f" stroke="#655e8f"></path><path d="M676 254L626 235L605 282Z" fill="#252e5b" stroke="#252e5b"></path><path d="M488 80L401 139L437 150Z" fill="#bba8d9" stroke="#bba8d9"></path><path d="M437 150L401 139L430 187Z" fill="#e8cfff" stroke="#e8cfff"></path><path d="M642 217L612 187L617 221Z" fill="#bba8d9" stroke="#bba8d9"></path><path d="M617 221L612 187L590 202Z" fill="#3b3d6c" stroke="#3b3d6c"></path><path d="M537 474L536 437L520 481Z" fill="#3b3d6c" stroke="#3b3d6c"></path><path d="M536 437L559 441L546 408Z" fill="#655e8f" stroke="#655e8f"></path><path d="M593 366L638 400L627 316Z" fill="#bba8d9" stroke="#bba8d9"></path><path d="M642 217L612 172L612 187Z" fill="#504d7d" stroke="#504d7d"></path><path d="M612 187L612 172L590 202Z" fill="#a595c6" stroke="#a595c6"></path><path d="M318 275L320 398L366 288Z" fill="#655e8f" stroke="#655e8f"></path><path d="M388 391L375 453L414 415Z" fill="#bba8d9" stroke="#bba8d9"></path><path d="M676 254L642 217L626 235Z" fill="#3b3d6c" stroke="#3b3d6c"></path><path d="M626 235L642 217L617 221Z" fill="#e8cfff" stroke="#e8cfff"></path><path d="M361 447L375 453L388 391Z" fill="#0c1f4b" stroke="#0c1f4b"></path><path d="M520 481L536 437L462 439Z" fill="#7a70a1" stroke="#7a70a1"></path><path d="M327 433L361 447L388 391Z" fill="#504d7d" stroke="#504d7d"></path><path d="M520 481L462 439L480 540Z" fill="#504d7d" stroke="#504d7d"></path><path d="M480 540L462 439L451 540Z" fill="#e8cfff" stroke="#e8cfff"></path><path d="M600 468L638 400L559 441Z" fill="#d1bbec" stroke="#d1bbec"></path><path d="M559 441L638 400L588 371Z" fill="#504d7d" stroke="#504d7d"></path><path d="M627 316L676 254L605 282Z" fill="#7a70a1" stroke="#7a70a1"></path><path d="M600 123L532 99L541 154Z" fill="#bba8d9" stroke="#bba8d9"></path><path d="M541 154L532 99L502 171Z" fill="#d1bbec" stroke="#d1bbec"></path><path d="M371 100L351 129L401 139Z" fill="#bba8d9" stroke="#bba8d9"></path><path d="M401 139L351 129L338 209Z" fill="#d1bbec" stroke="#d1bbec"></path><path d="M255 209L247 248L318 275Z" fill="#e8cfff" stroke="#e8cfff"></path><path d="M361 447L355 498L375 453Z" fill="#d1bbec" stroke="#d1bbec"></path><path d="M320 398L327 433L388 391Z" fill="#0c1f4b" stroke="#0c1f4b"></path><path d="M669 385L672 327L627 316Z" fill="#bba8d9" stroke="#bba8d9"></path><path d="M318 275L291 390L320 398Z" fill="#655e8f" stroke="#655e8f"></path><path d="M320 398L293 445L327 433Z" fill="#504d7d" stroke="#504d7d"></path><path d="M262 356L291 390L318 275Z" fill="#0c1f4b" stroke="#0c1f4b"></path><path d="M672 327L676 254L627 316Z" fill="#d1bbec" stroke="#d1bbec"></path><path d="M618 133L600 123L612 172Z" fill="#504d7d" stroke="#504d7d"></path><path d="M532 99L488 80L502 171Z" fill="#bba8d9" stroke="#bba8d9"></path><path d="M618 133L612 172L643 135Z" fill="#504d7d" stroke="#504d7d"></path><path d="M612 172L600 123L541 154Z" fill="#252e5b" stroke="#252e5b"></path><path d="M532 99L507 79L488 80Z" fill="#d1bbec" stroke="#d1bbec"></path><path d="M318 131L295 170L338 209Z" fill="#7a70a1" stroke="#7a70a1"></path><path d="M247 248L258 286L318 275Z" fill="#bba8d9" stroke="#bba8d9"></path><path d="M526 46L507 79L532 99Z" fill="#d1bbec" stroke="#d1bbec"></path><path d="M488 80L371 100L401 139Z" fill="#655e8f" stroke="#655e8f"></path><path d="M293 133L291 170L295 170Z" fill="#e8cfff" stroke="#e8cfff"></path><path d="M643 135L612 172L642 217Z" fill="#504d7d" stroke="#504d7d"></path><path d="M318 131L338 209L351 129Z" fill="#655e8f" stroke="#655e8f"></path><path d="M295 170L255 209L338 209Z" fill="#e8cfff" stroke="#e8cfff"></path><path d="M258 286L262 356L318 275Z" fill="#655e8f" stroke="#655e8f"></path><path d="M291 390L293 445L320 398Z" fill="#3b3d6c" stroke="#3b3d6c"></path><path d="M638 400L669 385L627 316Z" fill="#e8cfff" stroke="#e8cfff"></path><path d="M672 327L732 281L676 254Z" fill="#3b3d6c" stroke="#3b3d6c"></path><path d="M679 418L669 385L638 400Z" fill="#3b3d6c" stroke="#3b3d6c"></path><path d="M569 502L559 441L537 474Z" fill="#8f82b3" stroke="#8f82b3"></path><path d="M569 502L600 468L559 441Z" fill="#3b3d6c" stroke="#3b3d6c"></path><path d="M353 88L318 131L351 129Z" fill="#7a70a1" stroke="#7a70a1"></path><path d="M255 209L318 275L338 209Z" fill="#bba8d9" stroke="#bba8d9"></path><path d="M258 286L214 343L262 356Z" fill="#bba8d9" stroke="#bba8d9"></path><path d="M242 163L255 209L291 170Z" fill="#252e5b" stroke="#252e5b"></path><path d="M291 170L255 209L295 170Z" fill="#252e5b" stroke="#252e5b"></path><path d="M702 190L643 135L642 217Z" fill="#0c1f4b" stroke="#0c1f4b"></path><path d="M618 133L641 128L600 123Z" fill="#504d7d" stroke="#504d7d"></path><path d="M600 123L574 79L532 99Z" fill="#e8cfff" stroke="#e8cfff"></path><path d="M533 540L569 502L520 481Z" fill="#0c1f4b" stroke="#0c1f4b"></path><path d="M520 481L569 502L537 474Z" fill="#8f82b3" stroke="#8f82b3"></path><path d="M706 365L701 332L672 327Z" fill="#252e5b" stroke="#252e5b"></path><path d="M676 254L701 224L642 217Z" fill="#8f82b3" stroke="#8f82b3"></path><path d="M371 100L353 88L351 129Z" fill="#504d7d" stroke="#504d7d"></path><path d="M435 23L353 88L371 100Z" fill="#bba8d9" stroke="#bba8d9"></path><path d="M724 131L641 128L643 135Z" fill="#a595c6" stroke="#a595c6"></path><path d="M643 135L641 128L618 133Z" fill="#252e5b" stroke="#252e5b"></path><path d="M641 128L574 79L600 123Z" fill="#504d7d" stroke="#504d7d"></path><path d="M230 396L293 445L291 390Z" fill="#252e5b" stroke="#252e5b"></path><path d="M317 482L355 498L361 447Z" fill="#e8cfff" stroke="#e8cfff"></path><path d="M396 540L437 540L430 443Z" fill="#d1bbec" stroke="#d1bbec"></path><path d="M318 131L293 133L295 170Z" fill="#a595c6" stroke="#a595c6"></path><path d="M284 108L293 133L318 131Z" fill="#7a70a1" stroke="#7a70a1"></path><path d="M317 482L361 447L327 433Z" fill="#3b3d6c" stroke="#3b3d6c"></path><path d="M732 281L701 224L676 254Z" fill="#655e8f" stroke="#655e8f"></path><path d="M657 463L638 400L600 468Z" fill="#d1bbec" stroke="#d1bbec"></path><path d="M657 463L679 418L638 400Z" fill="#e8cfff" stroke="#e8cfff"></path><path d="M669 385L706 365L672 327Z" fill="#d1bbec" stroke="#d1bbec"></path><path d="M293 445L317 482L327 433Z" fill="#e8cfff" stroke="#e8cfff"></path><path d="M727 389L706 365L669 385Z" fill="#0c1f4b" stroke="#0c1f4b"></path><path d="M701 332L732 281L672 327Z" fill="#d1bbec" stroke="#d1bbec"></path><path d="M255 209L234 222L247 248Z" fill="#252e5b" stroke="#252e5b"></path><path d="M195 321L214 343L258 286Z" fill="#d1bbec" stroke="#d1bbec"></path><path d="M242 163L234 222L255 209Z" fill="#0c1f4b" stroke="#0c1f4b"></path><path d="M574 79L526 46L532 99Z" fill="#a595c6" stroke="#a595c6"></path><path d="M507 79L478 34L488 80Z" fill="#3b3d6c" stroke="#3b3d6c"></path><path d="M488 80L435 23L371 100Z" fill="#0c1f4b" stroke="#0c1f4b"></path><path d="M451 540L462 439L430 443Z" fill="#504d7d" stroke="#504d7d"></path><path d="M430 443L375 453L396 540Z" fill="#252e5b" stroke="#252e5b"></path><path d="M437 540L451 540L430 443Z" fill="#0c1f4b" stroke="#0c1f4b"></path><path d="M742 161L702 190L766 192Z" fill="#e8cfff" stroke="#e8cfff"></path><path d="M701 224L702 190L642 217Z" fill="#d1bbec" stroke="#d1bbec"></path><path d="M396 540L375 453L355 498Z" fill="#8f82b3" stroke="#8f82b3"></path><path d="M657 464L657 463L600 468Z" fill="#d1bbec" stroke="#d1bbec"></path><path d="M727 389L742 325L706 365Z" fill="#d1bbec" stroke="#d1bbec"></path><path d="M632 540L657 464L600 468Z" fill="#bba8d9" stroke="#bba8d9"></path><path d="M657 463L666 466L679 418Z" fill="#8f82b3" stroke="#8f82b3"></path><path d="M526 46L478 34L507 79Z" fill="#3b3d6c" stroke="#3b3d6c"></path><path d="M480 540L533 540L520 481Z" fill="#7a70a1" stroke="#7a70a1"></path><path d="M632 540L666 466L657 464Z" fill="#e8cfff" stroke="#e8cfff"></path><path d="M285 98L318 131L353 88Z" fill="#8f82b3" stroke="#8f82b3"></path><path d="M285 98L284 108L318 131Z" fill="#655e8f" stroke="#655e8f"></path><path d="M293 133L242 163L291 170Z" fill="#0c1f4b" stroke="#0c1f4b"></path><path d="M742 325L732 281L701 332Z" fill="#3b3d6c" stroke="#3b3d6c"></path><path d="M377 540L396 540L355 498Z" fill="#504d7d" stroke="#504d7d"></path><path d="M284 108L242 163L293 133Z" fill="#0c1f4b" stroke="#0c1f4b"></path><path d="M208 272L247 248L234 222Z" fill="#bba8d9" stroke="#bba8d9"></path><path d="M208 272L258 286L247 248Z" fill="#252e5b" stroke="#252e5b"></path><path d="M262 356L230 396L291 390Z" fill="#7a70a1" stroke="#7a70a1"></path><path d="M293 445L287 504L317 482Z" fill="#252e5b" stroke="#252e5b"></path><path d="M632 540L600 468L569 502Z" fill="#3b3d6c" stroke="#3b3d6c"></path><path d="M657 464L666 466L657 463Z" fill="#e8cfff" stroke="#e8cfff"></path><path d="M214 343L230 396L262 356Z" fill="#252e5b" stroke="#252e5b"></path><path d="M184 284L208 272L161 262Z" fill="#504d7d" stroke="#504d7d"></path><path d="M287 504L377 540L355 498Z" fill="#bba8d9" stroke="#bba8d9"></path><path d="M310 44L285 98L353 88Z" fill="#655e8f" stroke="#655e8f"></path><path d="M220 118L209 152L242 163Z" fill="#d1bbec" stroke="#d1bbec"></path><path d="M469 0L435 23L478 34Z" fill="#a595c6" stroke="#a595c6"></path><path d="M478 34L435 23L488 80Z" fill="#a595c6" stroke="#a595c6"></path><path d="M549 0L507 20L526 46Z" fill="#a595c6" stroke="#a595c6"></path><path d="M526 46L507 20L478 34Z" fill="#8f82b3" stroke="#8f82b3"></path><path d="M497 0L507 20L549 0Z" fill="#655e8f" stroke="#655e8f"></path><path d="M706 365L742 325L701 332Z" fill="#7a70a1" stroke="#7a70a1"></path><path d="M727 389L669 385L679 418Z" fill="#504d7d" stroke="#504d7d"></path><path d="M738 460L727 389L679 418Z" fill="#d1bbec" stroke="#d1bbec"></path><path d="M793 283L747 262L732 281Z" fill="#8f82b3" stroke="#8f82b3"></path><path d="M732 281L747 262L701 224Z" fill="#3b3d6c" stroke="#3b3d6c"></path><path d="M208 272L195 321L258 286Z" fill="#7a70a1" stroke="#7a70a1"></path><path d="M214 343L180 385L230 396Z" fill="#8f82b3" stroke="#8f82b3"></path><path d="M183 466L287 504L293 445Z" fill="#d1bbec" stroke="#d1bbec"></path><path d="M317 482L287 504L355 498Z" fill="#655e8f" stroke="#655e8f"></path><path d="M187 208L208 272L234 222Z" fill="#504d7d" stroke="#504d7d"></path><path d="M208 272L184 284L195 321Z" fill="#0c1f4b" stroke="#0c1f4b"></path><path d="M497 0L469 0L478 34Z" fill="#252e5b" stroke="#252e5b"></path><path d="M435 23L368 0L353 88Z" fill="#504d7d" stroke="#504d7d"></path><path d="M549 0L526 46L574 79Z" fill="#0c1f4b" stroke="#0c1f4b"></path><path d="M507 20L497 0L478 34Z" fill="#655e8f" stroke="#655e8f"></path><path d="M469 0L423 0L435 23Z" fill="#0c1f4b" stroke="#0c1f4b"></path><path d="M359 0L310 44L353 88Z" fill="#252e5b" stroke="#252e5b"></path><path d="M209 152L187 208L242 163Z" fill="#3b3d6c" stroke="#3b3d6c"></path><path d="M242 163L187 208L234 222Z" fill="#504d7d" stroke="#504d7d"></path><path d="M242 163L284 108L220 118Z" fill="#bba8d9" stroke="#bba8d9"></path><path d="M220 118L284 108L285 98Z" fill="#e8cfff" stroke="#e8cfff"></path><path d="M533 540L632 540L569 502Z" fill="#252e5b" stroke="#252e5b"></path><path d="M666 466L738 460L679 418Z" fill="#655e8f" stroke="#655e8f"></path><path d="M702 190L724 131L643 135Z" fill="#d1bbec" stroke="#d1bbec"></path><path d="M616 25L549 0L574 79Z" fill="#8f82b3" stroke="#8f82b3"></path><path d="M742 161L724 131L702 190Z" fill="#655e8f" stroke="#655e8f"></path><path d="M766 192L702 190L701 224Z" fill="#0c1f4b" stroke="#0c1f4b"></path><path d="M616 25L574 79L641 128Z" fill="#3b3d6c" stroke="#3b3d6c"></path><path d="M728 54L616 25L641 128Z" fill="#0c1f4b" stroke="#0c1f4b"></path><path d="M288 35L220 118L285 98Z" fill="#bba8d9" stroke="#bba8d9"></path><path d="M143 182L137 259L187 208Z" fill="#252e5b" stroke="#252e5b"></path><path d="M166 327L180 385L214 343Z" fill="#bba8d9" stroke="#bba8d9"></path><path d="M226 540L266 540L287 504Z" fill="#7a70a1" stroke="#7a70a1"></path><path d="M166 327L214 343L195 321Z" fill="#bba8d9" stroke="#bba8d9"></path><path d="M166 327L195 321L184 284Z" fill="#0c1f4b" stroke="#0c1f4b"></path><path d="M144 310L166 327L184 284Z" fill="#8f82b3" stroke="#8f82b3"></path><path d="M423 0L368 0L435 23Z" fill="#655e8f" stroke="#655e8f"></path><path d="M747 262L766 192L701 224Z" fill="#bba8d9" stroke="#bba8d9"></path><path d="M742 161L762 148L724 131Z" fill="#3b3d6c" stroke="#3b3d6c"></path><path d="M793 229L766 192L747 262Z" fill="#3b3d6c" stroke="#3b3d6c"></path><path d="M368 0L359 0L353 88Z" fill="#8f82b3" stroke="#8f82b3"></path><path d="M310 44L288 35L285 98Z" fill="#a595c6" stroke="#a595c6"></path><path d="M137 259L161 262L187 208Z" fill="#d1bbec" stroke="#d1bbec"></path><path d="M187 208L161 262L208 272Z" fill="#e8cfff" stroke="#e8cfff"></path><path d="M288 32L288 35L310 44Z" fill="#8f82b3" stroke="#8f82b3"></path><path d="M616 25L569 -9L549 0Z" fill="#e8cfff" stroke="#e8cfff"></path><path d="M549 0L569 -9L497 0Z" fill="#252e5b" stroke="#252e5b"></path><path d="M497 0L569 -9L469 0Z" fill="#655e8f" stroke="#655e8f"></path><path d="M469 0L569 -9L423 0Z" fill="#e8cfff" stroke="#e8cfff"></path><path d="M423 0L320 -2L368 0Z" fill="#7a70a1" stroke="#7a70a1"></path><path d="M368 0L320 -2L359 0Z" fill="#d1bbec" stroke="#d1bbec"></path><path d="M320 -2L288 32L310 44Z" fill="#e8cfff" stroke="#e8cfff"></path><path d="M148 63L154 102L220 118Z" fill="#a595c6" stroke="#a595c6"></path><path d="M710 524L738 460L666 466Z" fill="#655e8f" stroke="#655e8f"></path><path d="M727 389L783 369L742 325Z" fill="#e8cfff" stroke="#e8cfff"></path><path d="M742 325L793 283L732 281Z" fill="#252e5b" stroke="#252e5b"></path><path d="M780 418L783 369L727 389Z" fill="#bba8d9" stroke="#bba8d9"></path><path d="M783 369L793 283L742 325Z" fill="#504d7d" stroke="#504d7d"></path><path d="M183 466L293 445L230 396Z" fill="#655e8f" stroke="#655e8f"></path><path d="M287 504L266 540L377 540Z" fill="#bba8d9" stroke="#bba8d9"></path><path d="M156 413L175 420L180 385Z" fill="#e8cfff" stroke="#e8cfff"></path><path d="M180 385L175 420L230 396Z" fill="#7a70a1" stroke="#7a70a1"></path><path d="M764 140L762 148L784 174Z" fill="#252e5b" stroke="#252e5b"></path><path d="M784 174L762 148L742 161Z" fill="#252e5b" stroke="#252e5b"></path><path d="M724 131L728 54L641 128Z" fill="#d1bbec" stroke="#d1bbec"></path><path d="M793 283L793 229L747 262Z" fill="#0c1f4b" stroke="#0c1f4b"></path><path d="M161 262L144 310L184 284Z" fill="#655e8f" stroke="#655e8f"></path><path d="M166 327L156 413L180 385Z" fill="#3b3d6c" stroke="#3b3d6c"></path><path d="M359 0L320 -2L310 44Z" fill="#504d7d" stroke="#504d7d"></path><path d="M569 -9L320 -2L423 0Z" fill="#0c1f4b" stroke="#0c1f4b"></path><path d="M849 251L794 228L793 229Z" fill="#bba8d9" stroke="#bba8d9"></path><path d="M793 229L794 228L766 192Z" fill="#0c1f4b" stroke="#0c1f4b"></path><path d="M784 174L742 161L766 192Z" fill="#8f82b3" stroke="#8f82b3"></path><path d="M762 148L764 140L724 131Z" fill="#655e8f" stroke="#655e8f"></path><path d="M802 198L784 174L766 192Z" fill="#e8cfff" stroke="#e8cfff"></path><path d="M738 460L780 418L727 389Z" fill="#d1bbec" stroke="#d1bbec"></path><path d="M783 369L810 375L793 283Z" fill="#d1bbec" stroke="#d1bbec"></path><path d="M632 540L710 524L666 466Z" fill="#e8cfff" stroke="#e8cfff"></path><path d="M738 460L824 449L780 418Z" fill="#bba8d9" stroke="#bba8d9"></path><path d="M143 182L187 208L209 152Z" fill="#252e5b" stroke="#252e5b"></path><path d="M161 262L137 259L144 310Z" fill="#d1bbec" stroke="#d1bbec"></path><path d="M780 418L793 388L783 369Z" fill="#a595c6" stroke="#a595c6"></path><path d="M854 233L802 198L794 228Z" fill="#bba8d9" stroke="#bba8d9"></path><path d="M159 441L183 466L175 420Z" fill="#252e5b" stroke="#252e5b"></path><path d="M175 420L183 466L230 396Z" fill="#8f82b3" stroke="#8f82b3"></path><path d="M136 422L156 413L166 327Z" fill="#8f82b3" stroke="#8f82b3"></path><path d="M136 422L166 327L86 316Z" fill="#7a70a1" stroke="#7a70a1"></path><path d="M320 -2L290 -1L288 32Z" fill="#7a70a1" stroke="#7a70a1"></path><path d="M233 0L220 118L288 35Z" fill="#bba8d9" stroke="#bba8d9"></path><path d="M154 102L143 182L209 152Z" fill="#a595c6" stroke="#a595c6"></path><path d="M632 540L706 540L710 524Z" fill="#655e8f" stroke="#655e8f"></path><path d="M710 524L735 540L738 460Z" fill="#d1bbec" stroke="#d1bbec"></path><path d="M849 251L793 229L793 283Z" fill="#252e5b" stroke="#252e5b"></path><path d="M794 228L802 198L766 192Z" fill="#504d7d" stroke="#504d7d"></path><path d="M815 120L760 98L764 140Z" fill="#0c1f4b" stroke="#0c1f4b"></path><path d="M124 179L143 182L154 102Z" fill="#d1bbec" stroke="#d1bbec"></path><path d="M136 422L159 441L156 413Z" fill="#8f82b3" stroke="#8f82b3"></path><path d="M156 413L159 441L175 420Z" fill="#a595c6" stroke="#a595c6"></path><path d="M815 120L764 140L784 174Z" fill="#bba8d9" stroke="#bba8d9"></path><path d="M764 140L760 98L724 131Z" fill="#0c1f4b" stroke="#0c1f4b"></path><path d="M616 25L673 0L569 -9Z" fill="#a595c6" stroke="#a595c6"></path><path d="M760 98L728 54L724 131Z" fill="#7a70a1" stroke="#7a70a1"></path><path d="M856 407L810 375L793 388Z" fill="#504d7d" stroke="#504d7d"></path><path d="M793 388L810 375L783 369Z" fill="#3b3d6c" stroke="#3b3d6c"></path><path d="M840 365L810 375L856 407Z" fill="#d1bbec" stroke="#d1bbec"></path><path d="M192 502L226 540L287 504Z" fill="#8f82b3" stroke="#8f82b3"></path><path d="M192 502L287 504L183 466Z" fill="#8f82b3" stroke="#8f82b3"></path><path d="M166 467L192 502L183 466Z" fill="#3b3d6c" stroke="#3b3d6c"></path><path d="M159 441L166 467L183 466Z" fill="#bba8d9" stroke="#bba8d9"></path><path d="M728 54L673 0L616 25Z" fill="#a595c6" stroke="#a595c6"></path><path d="M192 502L216 540L226 540Z" fill="#7a70a1" stroke="#7a70a1"></path><path d="M206 549L216 540L192 540Z" fill="#504d7d" stroke="#504d7d"></path><path d="M159 441L136 422L166 467Z" fill="#8f82b3" stroke="#8f82b3"></path><path d="M86 316L166 327L144 310Z" fill="#d1bbec" stroke="#d1bbec"></path><path d="M760 98L750 58L728 54Z" fill="#504d7d" stroke="#504d7d"></path><path d="M728 54L699 0L673 0Z" fill="#a595c6" stroke="#a595c6"></path><path d="M809 61L750 58L760 98Z" fill="#655e8f" stroke="#655e8f"></path><path d="M706 540L735 540L710 524Z" fill="#504d7d" stroke="#504d7d"></path><path d="M154 102L209 152L220 118Z" fill="#8f82b3" stroke="#8f82b3"></path><path d="M143 182L124 179L137 259Z" fill="#bba8d9" stroke="#bba8d9"></path><path d="M137 259L86 316L144 310Z" fill="#0c1f4b" stroke="#0c1f4b"></path><path d="M233 0L288 35L288 32Z" fill="#bba8d9" stroke="#bba8d9"></path><path d="M713 0L699 0L728 54Z" fill="#e8cfff" stroke="#e8cfff"></path><path d="M673 0L699 0L569 -9Z" fill="#d1bbec" stroke="#d1bbec"></path><path d="M192 540L216 540L192 502Z" fill="#0c1f4b" stroke="#0c1f4b"></path><path d="M216 540L206 549L226 540Z" fill="#e8cfff" stroke="#e8cfff"></path><path d="M226 540L206 549L266 540Z" fill="#7a70a1" stroke="#7a70a1"></path><path d="M266 540L206 549L377 540Z" fill="#d1bbec" stroke="#d1bbec"></path><path d="M377 540L206 549L396 540Z" fill="#d1bbec" stroke="#d1bbec"></path><path d="M396 540L206 549L437 540Z" fill="#d1bbec" stroke="#d1bbec"></path><path d="M437 540L206 549L451 540Z" fill="#8f82b3" stroke="#8f82b3"></path><path d="M451 540L206 549L480 540Z" fill="#504d7d" stroke="#504d7d"></path><path d="M480 540L206 549L533 540Z" fill="#655e8f" stroke="#655e8f"></path><path d="M533 540L206 549L632 540Z" fill="#3b3d6c" stroke="#3b3d6c"></path><path d="M632 540L793 541L706 540Z" fill="#504d7d" stroke="#504d7d"></path><path d="M706 540L793 541L735 540Z" fill="#655e8f" stroke="#655e8f"></path><path d="M192 540L192 502L139 544Z" fill="#655e8f" stroke="#655e8f"></path><path d="M139 544L192 502L166 467Z" fill="#bba8d9" stroke="#bba8d9"></path><path d="M320 -2L233 0L290 -1Z" fill="#e8cfff" stroke="#e8cfff"></path><path d="M290 -1L233 0L288 32Z" fill="#d1bbec" stroke="#d1bbec"></path><path d="M184 0L233 0L320 -2Z" fill="#655e8f" stroke="#655e8f"></path><path d="M824 449L793 388L780 418Z" fill="#bba8d9" stroke="#bba8d9"></path><path d="M810 375L840 365L793 283Z" fill="#7a70a1" stroke="#7a70a1"></path><path d="M732 0L713 0L728 54Z" fill="#d1bbec" stroke="#d1bbec"></path><path d="M699 0L765 -4L569 -9Z" fill="#504d7d" stroke="#504d7d"></path><path d="M890 333L849 251L793 283Z" fill="#3b3d6c" stroke="#3b3d6c"></path><path d="M802 198L815 120L784 174Z" fill="#8f82b3" stroke="#8f82b3"></path><path d="M859 104L815 120L903 189Z" fill="#0c1f4b" stroke="#0c1f4b"></path><path d="M750 58L732 0L728 54Z" fill="#3b3d6c" stroke="#3b3d6c"></path><path d="M61 239L86 316L137 259Z" fill="#a595c6" stroke="#a595c6"></path><path d="M810 532L824 449L738 460Z" fill="#7a70a1" stroke="#7a70a1"></path><path d="M849 251L854 233L794 228Z" fill="#a595c6" stroke="#a595c6"></path><path d="M879 228L854 233L849 251Z" fill="#8f82b3" stroke="#8f82b3"></path><path d="M94 97L97 189L124 179Z" fill="#3b3d6c" stroke="#3b3d6c"></path><path d="M124 179L97 189L137 259Z" fill="#8f82b3" stroke="#8f82b3"></path><path d="M765 -4L732 0L750 58Z" fill="#8f82b3" stroke="#8f82b3"></path><path d="M713 0L765 -4L699 0Z" fill="#bba8d9" stroke="#bba8d9"></path><path d="M793 541L776 540L735 540Z" fill="#252e5b" stroke="#252e5b"></path><path d="M735 540L776 540L738 460Z" fill="#e8cfff" stroke="#e8cfff"></path><path d="M233 0L148 63L220 118Z" fill="#8f82b3" stroke="#8f82b3"></path><path d="M51 127L83 192L97 189Z" fill="#d1bbec" stroke="#d1bbec"></path><path d="M793 541L780 540L776 540Z" fill="#a595c6" stroke="#a595c6"></path><path d="M776 540L780 540L738 460Z" fill="#bba8d9" stroke="#bba8d9"></path><path d="M856 407L864 357L840 365Z" fill="#7a70a1" stroke="#7a70a1"></path><path d="M840 365L864 357L793 283Z" fill="#252e5b" stroke="#252e5b"></path><path d="M94 97L124 179L154 102Z" fill="#d1bbec" stroke="#d1bbec"></path><path d="M97 189L61 239L137 259Z" fill="#252e5b" stroke="#252e5b"></path><path d="M841 458L856 407L824 449Z" fill="#3b3d6c" stroke="#3b3d6c"></path><path d="M824 449L856 407L793 388Z" fill="#8f82b3" stroke="#8f82b3"></path><path d="M810 532L841 458L824 449Z" fill="#7a70a1" stroke="#7a70a1"></path><path d="M86 316L84 416L136 422Z" fill="#7a70a1" stroke="#7a70a1"></path><path d="M136 422L50 483L166 467Z" fill="#a595c6" stroke="#a595c6"></path><path d="M72 420L84 416L48 366Z" fill="#655e8f" stroke="#655e8f"></path><path d="M179 0L184 0L320 -2Z" fill="#0c1f4b" stroke="#0c1f4b"></path><path d="M233 0L184 0L148 63Z" fill="#bba8d9" stroke="#bba8d9"></path><path d="M815 69L809 61L760 98Z" fill="#e8cfff" stroke="#e8cfff"></path><path d="M815 69L760 98L815 120Z" fill="#d1bbec" stroke="#d1bbec"></path><path d="M206 549L793 541L632 540Z" fill="#8f82b3" stroke="#8f82b3"></path><path d="M780 540L810 532L738 460Z" fill="#d1bbec" stroke="#d1bbec"></path><path d="M836 103L815 69L815 120Z" fill="#504d7d" stroke="#504d7d"></path><path d="M859 104L836 103L815 120Z" fill="#504d7d" stroke="#504d7d"></path><path d="M122 0L179 0L320 -2Z" fill="#bba8d9" stroke="#bba8d9"></path><path d="M184 0L161 8L148 63Z" fill="#8f82b3" stroke="#8f82b3"></path><path d="M148 63L118 78L154 102Z" fill="#a595c6" stroke="#a595c6"></path><path d="M125 41L118 78L148 63Z" fill="#655e8f" stroke="#655e8f"></path><path d="M919 293L879 228L849 251Z" fill="#3b3d6c" stroke="#3b3d6c"></path><path d="M854 233L903 189L802 198Z" fill="#a595c6" stroke="#a595c6"></path><path d="M45 224L61 239L83 192Z" fill="#3b3d6c" stroke="#3b3d6c"></path><path d="M83 192L61 239L97 189Z" fill="#8f82b3" stroke="#8f82b3"></path><path d="M858 25L765 -4L809 61Z" fill="#a595c6" stroke="#a595c6"></path><path d="M809 61L765 -4L750 58Z" fill="#7a70a1" stroke="#7a70a1"></path><path d="M732 0L765 -4L713 0Z" fill="#8f82b3" stroke="#8f82b3"></path><path d="M793 541L810 532L780 540Z" fill="#0c1f4b" stroke="#0c1f4b"></path><path d="M120 540L139 544L166 467Z" fill="#7a70a1" stroke="#7a70a1"></path><path d="M192 540L139 544L206 549Z" fill="#8f82b3" stroke="#8f82b3"></path><path d="M179 0L161 8L184 0Z" fill="#3b3d6c" stroke="#3b3d6c"></path><path d="M48 366L84 416L86 316Z" fill="#a595c6" stroke="#a595c6"></path><path d="M55 502L120 540L166 467Z" fill="#655e8f" stroke="#655e8f"></path><path d="M896 422L890 333L864 357Z" fill="#7a70a1" stroke="#7a70a1"></path><path d="M864 357L890 333L793 283Z" fill="#8f82b3" stroke="#8f82b3"></path><path d="M902 317L890 333L916 325Z" fill="#d1bbec" stroke="#d1bbec"></path><path d="M77 72L94 97L118 78Z" fill="#bba8d9" stroke="#bba8d9"></path><path d="M118 78L94 97L154 102Z" fill="#d1bbec" stroke="#d1bbec"></path><path d="M27 229L45 294L61 239Z" fill="#252e5b" stroke="#252e5b"></path><path d="M61 239L45 294L86 316Z" fill="#252e5b" stroke="#252e5b"></path><path d="M161 8L125 41L148 63Z" fill="#655e8f" stroke="#655e8f"></path><path d="M45 294L48 366L86 316Z" fill="#7a70a1" stroke="#7a70a1"></path><path d="M903 189L815 120L802 198Z" fill="#504d7d" stroke="#504d7d"></path><path d="M836 103L848 44L815 69Z" fill="#655e8f" stroke="#655e8f"></path><path d="M815 69L848 44L809 61Z" fill="#655e8f" stroke="#655e8f"></path><path d="M50 483L84 416L72 420Z" fill="#bba8d9" stroke="#bba8d9"></path><path d="M50 483L136 422L84 416Z" fill="#e8cfff" stroke="#e8cfff"></path><path d="M27 229L0 207L0 215Z" fill="#3b3d6c" stroke="#3b3d6c"></path><path d="M896 422L864 357L856 407Z" fill="#655e8f" stroke="#655e8f"></path><path d="M890 333L902 317L849 251Z" fill="#bba8d9" stroke="#bba8d9"></path><path d="M879 228L903 189L854 233Z" fill="#d1bbec" stroke="#d1bbec"></path><path d="M896 422L856 407L841 458Z" fill="#d1bbec" stroke="#d1bbec"></path><path d="M960 259L903 189L879 228Z" fill="#8f82b3" stroke="#8f82b3"></path><path d="M882 493L896 422L841 458Z" fill="#7a70a1" stroke="#7a70a1"></path><path d="M960 400L916 325L890 333Z" fill="#504d7d" stroke="#504d7d"></path><path d="M902 317L919 293L849 251Z" fill="#e8cfff" stroke="#e8cfff"></path><path d="M916 325L919 293L902 317Z" fill="#655e8f" stroke="#655e8f"></path><path d="M0 207L45 224L0 164Z" fill="#d1bbec" stroke="#d1bbec"></path><path d="M45 224L27 229L61 239Z" fill="#3b3d6c" stroke="#3b3d6c"></path><path d="M45 294L0 321L48 366Z" fill="#a595c6" stroke="#a595c6"></path><path d="M888 95L848 44L859 104Z" fill="#3b3d6c" stroke="#3b3d6c"></path><path d="M859 104L848 44L836 103Z" fill="#3b3d6c" stroke="#3b3d6c"></path><path d="M125 41L77 72L118 78Z" fill="#a595c6" stroke="#a595c6"></path><path d="M94 97L51 127L97 189Z" fill="#a595c6" stroke="#a595c6"></path><path d="M110 11L77 72L125 41Z" fill="#d1bbec" stroke="#d1bbec"></path><path d="M77 72L51 127L94 97Z" fill="#3b3d6c" stroke="#3b3d6c"></path><path d="M161 8L122 0L125 41Z" fill="#7a70a1" stroke="#7a70a1"></path><path d="M179 0L122 0L161 8Z" fill="#a595c6" stroke="#a595c6"></path><path d="M92 0L122 0L0 -1Z" fill="#8f82b3" stroke="#8f82b3"></path><path d="M122 0L110 11L125 41Z" fill="#0c1f4b" stroke="#0c1f4b"></path><path d="M810 532L882 493L841 458Z" fill="#e8cfff" stroke="#e8cfff"></path><path d="M960 329L960 300L916 325Z" fill="#504d7d" stroke="#504d7d"></path><path d="M912 143L888 95L859 104Z" fill="#0c1f4b" stroke="#0c1f4b"></path><path d="M960 199L920 180L903 189Z" fill="#655e8f" stroke="#655e8f"></path><path d="M903 189L912 143L859 104Z" fill="#7a70a1" stroke="#7a70a1"></path><path d="M793 541L861 540L810 532Z" fill="#a595c6" stroke="#a595c6"></path><path d="M810 532L861 540L882 493Z" fill="#0c1f4b" stroke="#0c1f4b"></path><path d="M0 458L50 483L72 420Z" fill="#e8cfff" stroke="#e8cfff"></path><path d="M0 401L72 420L48 366Z" fill="#a595c6" stroke="#a595c6"></path><path d="M55 502L81 540L120 540Z" fill="#0c1f4b" stroke="#0c1f4b"></path><path d="M120 540L81 540L139 544Z" fill="#0c1f4b" stroke="#0c1f4b"></path><path d="M139 544L0 540L206 549Z" fill="#d1bbec" stroke="#d1bbec"></path><path d="M920 180L912 143L903 189Z" fill="#8f82b3" stroke="#8f82b3"></path><path d="M50 483L55 502L166 467Z" fill="#d1bbec" stroke="#d1bbec"></path><path d="M888 95L858 25L848 44Z" fill="#7a70a1" stroke="#7a70a1"></path><path d="M848 44L858 25L809 61Z" fill="#e8cfff" stroke="#e8cfff"></path><path d="M859 0L858 25L864 0Z" fill="#bba8d9" stroke="#bba8d9"></path><path d="M0 215L0 321L27 229Z" fill="#3b3d6c" stroke="#3b3d6c"></path><path d="M27 229L0 321L45 294Z" fill="#7a70a1" stroke="#7a70a1"></path><path d="M50 483L0 540L55 502Z" fill="#d1bbec" stroke="#d1bbec"></path><path d="M0 321L0 346L48 366Z" fill="#655e8f" stroke="#655e8f"></path><path d="M45 224L83 192L0 164Z" fill="#e8cfff" stroke="#e8cfff"></path><path d="M0 207L27 229L45 224Z" fill="#e8cfff" stroke="#e8cfff"></path><path d="M110 11L92 0L77 72Z" fill="#d1bbec" stroke="#d1bbec"></path><path d="M4 131L15 139L0 109Z" fill="#252e5b" stroke="#252e5b"></path><path d="M122 0L92 0L110 11Z" fill="#504d7d" stroke="#504d7d"></path><path d="M0 -1L122 0L320 -2Z" fill="#d1bbec" stroke="#d1bbec"></path><path d="M15 139L83 192L51 127Z" fill="#8f82b3" stroke="#8f82b3"></path><path d="M15 139L51 127L0 109Z" fill="#8f82b3" stroke="#8f82b3"></path><path d="M0 346L0 401L48 366Z" fill="#504d7d" stroke="#504d7d"></path><path d="M864 0L858 25L885 0Z" fill="#504d7d" stroke="#504d7d"></path><path d="M858 25L859 0L765 -4Z" fill="#bba8d9" stroke="#bba8d9"></path><path d="M15 139L0 164L83 192Z" fill="#a595c6" stroke="#a595c6"></path><path d="M4 131L0 164L15 139Z" fill="#0c1f4b" stroke="#0c1f4b"></path><path d="M885 0L858 25L888 95Z" fill="#a595c6" stroke="#a595c6"></path><path d="M859 0L864 0L765 -4Z" fill="#3b3d6c" stroke="#3b3d6c"></path><path d="M916 325L960 300L919 293Z" fill="#bba8d9" stroke="#bba8d9"></path><path d="M919 293L960 259L879 228Z" fill="#252e5b" stroke="#252e5b"></path><path d="M920 180L940 137L912 143Z" fill="#8f82b3" stroke="#8f82b3"></path><path d="M960 329L916 325L960 400Z" fill="#0c1f4b" stroke="#0c1f4b"></path><path d="M0 401L0 421L72 420Z" fill="#655e8f" stroke="#655e8f"></path><path d="M960 300L960 259L919 293Z" fill="#bba8d9" stroke="#bba8d9"></path><path d="M912 143L940 137L888 95Z" fill="#a595c6" stroke="#a595c6"></path><path d="M0 346L-3 415L0 401Z" fill="#e8cfff" stroke="#e8cfff"></path><path d="M0 401L-3 415L0 421Z" fill="#bba8d9" stroke="#bba8d9"></path><path d="M0 321L-3 415L0 346Z" fill="#252e5b" stroke="#252e5b"></path><path d="M0 215L-3 415L0 321Z" fill="#e8cfff" stroke="#e8cfff"></path><path d="M0 207L-3 415L0 215Z" fill="#7a70a1" stroke="#7a70a1"></path><path d="M0 164L-3 415L0 207Z" fill="#e8cfff" stroke="#e8cfff"></path><path d="M960 400L890 333L896 422Z" fill="#a595c6" stroke="#a595c6"></path><path d="M960 400L896 422L960 431Z" fill="#e8cfff" stroke="#e8cfff"></path><path d="M960 170L940 137L920 180Z" fill="#655e8f" stroke="#655e8f"></path><path d="M0 109L51 127L0 90Z" fill="#0c1f4b" stroke="#0c1f4b"></path><path d="M960 259L960 199L903 189Z" fill="#7a70a1" stroke="#7a70a1"></path><path d="M-3 415L0 458L0 421Z" fill="#504d7d" stroke="#504d7d"></path><path d="M0 421L0 458L72 420Z" fill="#a595c6" stroke="#a595c6"></path><path d="M55 502L0 540L81 540Z" fill="#504d7d" stroke="#504d7d"></path><path d="M964 397L960 400L960 431Z" fill="#3b3d6c" stroke="#3b3d6c"></path><path d="M960 199L960 170L920 180Z" fill="#504d7d" stroke="#504d7d"></path><path d="M960 49L885 0L888 95Z" fill="#0c1f4b" stroke="#0c1f4b"></path><path d="M960 431L896 422L941 487Z" fill="#8f82b3" stroke="#8f82b3"></path><path d="M960 400L964 397L960 329Z" fill="#0c1f4b" stroke="#0c1f4b"></path><path d="M960 329L964 397L960 300Z" fill="#0c1f4b" stroke="#0c1f4b"></path><path d="M960 300L964 397L960 259Z" fill="#d1bbec" stroke="#d1bbec"></path><path d="M960 259L964 397L960 199Z" fill="#d1bbec" stroke="#d1bbec"></path><path d="M960 199L964 397L960 170Z" fill="#d1bbec" stroke="#d1bbec"></path><path d="M0 90L51 127L77 72Z" fill="#3b3d6c" stroke="#3b3d6c"></path><path d="M4 131L0 109L0 164Z" fill="#e8cfff" stroke="#e8cfff"></path><path d="M0 164L0 109L-3 415Z" fill="#504d7d" stroke="#504d7d"></path><path d="M960 79L888 95L940 137Z" fill="#bba8d9" stroke="#bba8d9"></path><path d="M864 0L885 0L765 -4Z" fill="#a595c6" stroke="#a595c6"></path><path d="M941 487L896 422L882 493Z" fill="#7a70a1" stroke="#7a70a1"></path><path d="M960 540L941 487L882 493Z" fill="#3b3d6c" stroke="#3b3d6c"></path><path d="M48 0L0 90L77 72Z" fill="#252e5b" stroke="#252e5b"></path><path d="M0 109L0 90L-3 415Z" fill="#bba8d9" stroke="#bba8d9"></path><path d="M964 397L960 136L960 170Z" fill="#504d7d" stroke="#504d7d"></path><path d="M960 170L960 136L940 137Z" fill="#8f82b3" stroke="#8f82b3"></path><path d="M0 -1L48 0L92 0Z" fill="#3b3d6c" stroke="#3b3d6c"></path><path d="M92 0L48 0L77 72Z" fill="#0c1f4b" stroke="#0c1f4b"></path><path d="M960 431L960 470L964 397Z" fill="#7a70a1" stroke="#7a70a1"></path><path d="M941 487L960 470L960 431Z" fill="#504d7d" stroke="#504d7d"></path><path d="M964 397L960 79L960 136Z" fill="#7a70a1" stroke="#7a70a1"></path><path d="M960 136L960 79L940 137Z" fill="#0c1f4b" stroke="#0c1f4b"></path><path d="M-3 415L0 540L0 458Z" fill="#0c1f4b" stroke="#0c1f4b"></path><path d="M0 458L0 540L50 483Z" fill="#8f82b3" stroke="#8f82b3"></path><path d="M81 540L0 540L139 544Z" fill="#8f82b3" stroke="#8f82b3"></path><path d="M964 397L960 49L960 79Z" fill="#a595c6" stroke="#a595c6"></path><path d="M960 79L960 49L888 95Z" fill="#0c1f4b" stroke="#0c1f4b"></path><path d="M960 470L962 540L964 397Z" fill="#504d7d" stroke="#504d7d"></path><path d="M941 487L962 540L960 470Z" fill="#bba8d9" stroke="#bba8d9"></path><path d="M861 540L960 540L882 493Z" fill="#a595c6" stroke="#a595c6"></path><path d="M793 541L960 540L861 540Z" fill="#a595c6" stroke="#a595c6"></path><path d="M962 540L960 540L793 541Z" fill="#252e5b" stroke="#252e5b"></path><path d="M206 549L962 540L793 541Z" fill="#e8cfff" stroke="#e8cfff"></path><path d="M960 540L962 540L941 487Z" fill="#d1bbec" stroke="#d1bbec"></path><path d="M0 -1L0 0L48 0Z" fill="#bba8d9" stroke="#bba8d9"></path><path d="M48 0L0 0L0 90Z" fill="#e8cfff" stroke="#e8cfff"></path><path d="M0 90L0 0L-3 415Z" fill="#d1bbec" stroke="#d1bbec"></path><path d="M569 -9L0 -1L320 -2Z" fill="#a595c6" stroke="#a595c6"></path><path d="M0 0L0 -1L-3 415Z" fill="#bba8d9" stroke="#bba8d9"></path><path d="M960 49L960 0L885 0Z" fill="#655e8f" stroke="#655e8f"></path><path d="M885 0L960 0L765 -4Z" fill="#7a70a1" stroke="#7a70a1"></path><path d="M765 -4L960 0L569 -9Z" fill="#bba8d9" stroke="#bba8d9"></path><path d="M964 397L960 0L960 49Z" fill="#504d7d" stroke="#504d7d"></path></g></svg>