<svg id="visual" viewBox="0 0 960 540" width="960" height="540" xmlns="http://www.w3.org/2000/svg" xmlns:xlink="http://www.w3.org/1999/xlink" version="1.1"><path d="M0 71L87 87L175 50L262 44L349 39L436 44L524 39L611 33L698 39L785 82L873 82L960 50L960 0L873 0L785 0L698 0L611 0L524 0L436 0L349 0L262 0L175 0L87 0L0 0Z" fill="#cccccc"></path><path d="M0 174L87 222L175 276L262 266L349 228L436 125L524 217L611 163L698 217L785 201L873 325L960 233L960 48L873 80L785 80L698 37L611 31L524 37L436 42L349 37L262 42L175 48L87 85L0 69Z" fill="#a4bab5"></path><path d="M0 271L87 271L175 395L262 336L349 330L436 244L524 293L611 260L698 374L785 244L873 390L960 309L960 231L873 323L785 199L698 215L611 161L524 215L436 123L349 226L262 264L175 274L87 220L0 172Z" fill="#7ba89e"></path><path d="M0 374L87 379L175 433L262 428L349 417L436 341L524 347L611 379L698 444L785 325L873 444L960 390L960 307L873 388L785 242L698 372L611 258L524 291L436 242L349 328L262 334L175 393L87 269L0 269Z" fill="#4f9688"></path><path d="M0 541L87 541L175 541L262 541L349 541L436 541L524 541L611 541L698 541L785 541L873 541L960 541L960 388L873 442L785 323L698 442L611 377L524 345L436 339L349 415L262 426L175 431L87 377L0 372Z" fill="#038373"></path></svg>